<svg xmlns="http://www.w3.org/2000/svg" viewBox="0 0 462 553"><defs><style>.cls-1{fill:#52658f;}.cls-2{fill:#fff;}</style></defs><title>Book</title><g id="Layer_2" data-name="Layer 2"><g id="Layer_1-2" data-name="Layer 1"><path class="cls-1" d="M25.22,0H443.36L462,527.29A25.47,25.47,0,0,1,436.78,553H25.22A25.47,25.47,0,0,1,0,527.29V25.71A25.47,25.47,0,0,1,25.22,0Z"/><path class="cls-2" d="M15,25.83c-.27,7.6,4.41,14,10,14.17s9.89-5.85,10.17-13.44S30.56,13.2,25,13,15.3,18.23,15,25.83Z"/><polyline class="cls-2" points="25 40 445 46.76 430 14 25 13"/><rect class="cls-1" x="25" y="40" width="437" height="513"/></g></g></svg>