<svg width="235" height="340" viewBox="0 0 235 340" fill="none" xmlns="http://www.w3.org/2000/svg">
<rect width="235" height="340" fill="#BFC8DB"/>
<path d="M75.1221 203.862V225H78.4033V217.778H82.9443C87.0898 217.778 90.0049 214.937 90.0049 210.806C90.0049 206.689 87.1484 203.862 83.0469 203.862H75.1221ZM78.4033 206.631H82.1826C85.0244 206.631 86.6504 208.154 86.6504 210.82C86.6504 213.486 85.0244 215.024 82.168 215.024H78.4033V206.631ZM102.031 220.474C101.606 221.821 100.273 222.729 98.4717 222.729C95.9375 222.729 94.3262 220.957 94.3262 218.276V218.086H105.21V217.002C105.21 212.329 102.544 209.312 98.2666 209.312C93.916 209.312 91.1328 212.534 91.1328 217.368C91.1328 222.231 93.8721 225.293 98.3984 225.293C101.929 225.293 104.595 223.286 105.034 220.474H102.031ZM98.2666 211.86C100.479 211.86 101.973 213.516 102.046 215.874H94.3408C94.502 213.545 96.0547 211.86 98.2666 211.86ZM114.292 225.293C118.701 225.293 121.602 222.261 121.602 217.295C121.602 212.344 118.687 209.312 114.292 209.312C109.897 209.312 106.982 212.344 106.982 217.295C106.982 222.261 109.883 225.293 114.292 225.293ZM114.292 222.686C111.816 222.686 110.205 220.723 110.205 217.295C110.205 213.882 111.816 211.919 114.292 211.919C116.768 211.919 118.379 213.882 118.379 217.295C118.379 220.723 116.782 222.686 114.292 222.686ZM132.075 209.341C129.849 209.341 128.076 210.469 127.168 212.241H127.109V209.59H124.048V230.098H127.212V222.466H127.285C128.164 224.18 129.922 225.264 132.134 225.264C136.001 225.264 138.564 222.173 138.564 217.295C138.564 212.417 135.986 209.341 132.075 209.341ZM131.24 222.583C128.809 222.583 127.197 220.503 127.197 217.295C127.197 214.116 128.823 212.007 131.24 212.007C133.745 212.007 135.312 214.072 135.312 217.295C135.312 220.532 133.745 222.583 131.24 222.583ZM141.128 225H144.292V203.862H141.128V225ZM157.754 220.474C157.329 221.821 155.996 222.729 154.194 222.729C151.66 222.729 150.049 220.957 150.049 218.276V218.086H160.933V217.002C160.933 212.329 158.267 209.312 153.989 209.312C149.639 209.312 146.855 212.534 146.855 217.368C146.855 222.231 149.595 225.293 154.121 225.293C157.651 225.293 160.317 223.286 160.757 220.474H157.754ZM153.989 211.86C156.201 211.86 157.695 213.516 157.769 215.874H150.063C150.225 213.545 151.777 211.86 153.989 211.86Z" fill="white"/>
<path fill-rule="evenodd" clip-rule="evenodd" d="M88.8333 181C88.8333 181 83 181 83 175.167C83 169.333 88.8333 151.833 118 151.833C147.167 151.833 153 169.333 153 175.167C153 181 147.167 181 147.167 181H88.8333ZM118 146C122.641 146 127.092 144.156 130.374 140.874C133.656 137.592 135.5 133.141 135.5 128.5C135.5 123.859 133.656 119.408 130.374 116.126C127.092 112.844 122.641 111 118 111C113.359 111 108.908 112.844 105.626 116.126C102.344 119.408 100.5 123.859 100.5 128.5C100.5 133.141 102.344 137.592 105.626 140.874C108.908 144.156 113.359 146 118 146V146Z" fill="white"/>
</svg>
