<svg width="235" height="340" viewBox="0 0 235 340" fill="none" xmlns="http://www.w3.org/2000/svg">
<rect width="235" height="340" fill="#BFC8DB"/>
<path d="M66.8018 203.862V225H70.083V217.778H74.624C78.7695 217.778 81.6846 214.937 81.6846 210.806C81.6846 206.689 78.8281 203.862 74.7266 203.862H66.8018ZM70.083 206.631H73.8623C76.7041 206.631 78.3301 208.154 78.3301 210.82C78.3301 213.486 76.7041 215.024 73.8477 215.024H70.083V206.631ZM84.1748 225H87.3389V215.771C87.3389 213.589 88.5986 212.227 90.6348 212.227C91.25 212.227 91.8066 212.3 92.0557 212.402V209.458C91.8213 209.414 91.4258 209.341 90.9717 209.341C89.1553 209.341 87.7783 210.41 87.2656 212.212H87.1924V209.59H84.1748V225ZM99.9658 225.293C104.375 225.293 107.275 222.261 107.275 217.295C107.275 212.344 104.36 209.312 99.9658 209.312C95.5713 209.312 92.6562 212.344 92.6562 217.295C92.6562 222.261 95.5566 225.293 99.9658 225.293ZM99.9658 222.686C97.4902 222.686 95.8789 220.723 95.8789 217.295C95.8789 213.882 97.4902 211.919 99.9658 211.919C102.441 211.919 104.053 213.882 104.053 217.295C104.053 220.723 102.456 222.686 99.9658 222.686ZM111.392 207.1C112.417 207.1 113.208 206.279 113.208 205.283C113.208 204.272 112.417 203.467 111.392 203.467C110.381 203.467 109.561 204.272 109.561 205.283C109.561 206.279 110.381 207.1 111.392 207.1ZM112.988 209.59H109.824V225.718C109.824 227.271 109.238 227.856 107.671 227.856C107.612 227.856 107.275 227.842 107.217 227.842V230.332C107.305 230.361 107.803 230.361 107.949 230.361C111.362 230.361 112.988 228.867 112.988 225.732V209.59ZM126.436 220.474C126.011 221.821 124.678 222.729 122.876 222.729C120.342 222.729 118.73 220.957 118.73 218.276V218.086H129.614V217.002C129.614 212.329 126.948 209.312 122.671 209.312C118.32 209.312 115.537 212.534 115.537 217.368C115.537 222.231 118.276 225.293 122.803 225.293C126.333 225.293 128.999 223.286 129.438 220.474H126.436ZM122.671 211.86C124.883 211.86 126.377 213.516 126.45 215.874H118.745C118.906 213.545 120.459 211.86 122.671 211.86ZM145.303 214.893C145.024 211.86 142.607 209.312 138.638 209.312C134.258 209.312 131.387 212.402 131.387 217.295C131.387 222.275 134.258 225.293 138.667 225.293C142.373 225.293 144.995 223.066 145.332 219.785H142.285C141.919 221.572 140.645 222.642 138.696 222.642C136.235 222.642 134.609 220.679 134.609 217.295C134.609 213.984 136.221 211.948 138.667 211.948C140.732 211.948 141.963 213.252 142.285 214.893H145.303ZM148.496 205.942V209.59H146.255V212.095H148.496V220.942C148.496 223.916 149.712 225.103 152.832 225.103C153.535 225.103 154.238 225.044 154.59 224.956V222.451C154.385 222.495 153.872 222.524 153.55 222.524C152.261 222.524 151.675 221.924 151.675 220.591V212.095H154.604V209.59H151.675V205.942H148.496ZM156.934 213.955C156.934 216.196 158.384 217.603 161.313 218.276L163.818 218.862C165.503 219.243 166.074 219.829 166.074 220.825C166.074 222.085 164.902 222.876 162.998 222.876C161.064 222.876 159.966 222.085 159.673 220.474H156.538C156.831 223.403 159.146 225.293 162.998 225.293C166.631 225.293 169.253 223.359 169.253 220.547C169.253 218.32 168.052 217.09 164.902 216.357L162.397 215.786C160.728 215.405 160.024 214.746 160.024 213.779C160.024 212.549 161.167 211.714 162.881 211.714C164.653 211.714 165.752 212.651 165.928 214.146H168.901C168.799 211.304 166.47 209.312 162.881 209.312C159.336 209.312 156.934 211.201 156.934 213.955Z" fill="white"/>
<path d="M125.306 160.47H122.759L121.856 159.599C123.871 157.259 125.344 154.501 126.169 151.525C126.994 148.549 127.15 145.427 126.628 142.383C125.113 133.42 117.633 126.262 108.605 125.166C105.431 124.764 102.208 125.094 99.1812 126.13C96.1545 127.166 93.4049 128.881 91.1428 131.143C88.8807 133.405 87.1661 136.154 86.1301 139.181C85.0942 142.208 84.7643 145.431 85.1658 148.605C86.262 157.633 93.4196 165.113 102.383 166.628C105.427 167.15 108.549 166.994 111.525 166.169C114.501 165.344 117.259 163.871 119.599 161.856L120.47 162.759V165.306L134.172 179.009C135.494 180.33 137.654 180.33 138.976 179.009C140.298 177.687 140.298 175.527 138.976 174.205L125.306 160.47ZM105.961 160.47C97.9333 160.47 91.4529 153.989 91.4529 145.961C91.4529 137.933 97.9333 131.453 105.961 131.453C113.989 131.453 120.47 137.933 120.47 145.961C120.47 153.989 113.989 160.47 105.961 160.47Z" fill="white"/>
</svg>
