<svg width="235" height="340" viewBox="0 0 235 340" fill="none" xmlns="http://www.w3.org/2000/svg">
<rect width="235" height="340" fill="#BFC8DB"/>
<path d="M39.1123 203.862V225H42.3936V217.778H46.9346C51.0801 217.778 53.9951 214.937 53.9951 210.806C53.9951 206.689 51.1387 203.862 47.0371 203.862H39.1123ZM42.3936 206.631H46.1729C49.0146 206.631 50.6406 208.154 50.6406 210.82C50.6406 213.486 49.0146 215.024 46.1582 215.024H42.3936V206.631ZM69.6982 209.59H66.5342V218.569C66.5342 220.972 65.1572 222.554 62.8721 222.554C60.6895 222.554 59.5762 221.294 59.5762 218.95V209.59H56.4121V219.565C56.4121 223.096 58.4629 225.278 61.8174 225.278C64.1758 225.278 65.7432 224.238 66.5928 222.393H66.666V225H69.6982V209.59ZM81.0361 225.264C84.9473 225.264 87.4668 222.188 87.4668 217.295C87.4668 212.417 84.9326 209.341 81.0508 209.341C78.8682 209.341 77.1104 210.425 76.1875 212.212H76.1143V203.862H72.9502V225H76.0264V222.378H76.085C77.0371 224.165 78.7803 225.264 81.0361 225.264ZM80.1865 212.007C82.6768 212.007 84.2148 214.058 84.2148 217.295C84.2148 220.562 82.6768 222.583 80.1865 222.583C77.7842 222.583 76.0996 220.503 76.0996 217.295C76.0996 214.116 77.7842 212.007 80.1865 212.007ZM90.0596 225H93.2236V203.862H90.0596V225ZM98.1602 207.1C99.1709 207.1 99.9766 206.279 99.9766 205.283C99.9766 204.272 99.1709 203.467 98.1602 203.467C97.1494 203.467 96.3291 204.272 96.3291 205.283C96.3291 206.279 97.1494 207.1 98.1602 207.1ZM96.5781 225H99.7422V209.59H96.5781V225ZM116.207 214.893C115.929 211.86 113.512 209.312 109.542 209.312C105.162 209.312 102.291 212.402 102.291 217.295C102.291 222.275 105.162 225.293 109.571 225.293C113.277 225.293 115.899 223.066 116.236 219.785H113.189C112.823 221.572 111.549 222.642 109.601 222.642C107.14 222.642 105.514 220.679 105.514 217.295C105.514 213.984 107.125 211.948 109.571 211.948C111.637 211.948 112.867 213.252 113.189 214.893H116.207ZM122.989 225.264C125.011 225.264 126.959 224.18 127.853 222.466H127.926V225H130.958V214.38C130.958 211.289 128.57 209.312 124.835 209.312C121.026 209.312 118.653 211.362 118.478 214.146H121.466C121.744 212.769 122.887 211.89 124.718 211.89C126.651 211.89 127.809 212.915 127.809 214.629V215.815L123.59 216.064C119.928 216.27 117.862 217.925 117.862 220.62C117.862 223.389 119.972 225.264 122.989 225.264ZM123.868 222.759C122.169 222.759 121.056 221.88 121.056 220.532C121.056 219.214 122.125 218.379 124.015 218.247L127.809 218.013V219.229C127.809 221.235 126.08 222.759 123.868 222.759ZM134.957 205.942V209.59H132.716V212.095H134.957V220.942C134.957 223.916 136.173 225.103 139.293 225.103C139.996 225.103 140.699 225.044 141.051 224.956V222.451C140.846 222.495 140.333 222.524 140.011 222.524C138.722 222.524 138.136 221.924 138.136 220.591V212.095H141.065V209.59H138.136V205.942H134.957ZM145.357 207.1C146.368 207.1 147.174 206.279 147.174 205.283C147.174 204.272 146.368 203.467 145.357 203.467C144.347 203.467 143.526 204.272 143.526 205.283C143.526 206.279 144.347 207.1 145.357 207.1ZM143.775 225H146.939V209.59H143.775V225ZM156.798 225.293C161.207 225.293 164.107 222.261 164.107 217.295C164.107 212.344 161.192 209.312 156.798 209.312C152.403 209.312 149.488 212.344 149.488 217.295C149.488 222.261 152.389 225.293 156.798 225.293ZM156.798 222.686C154.322 222.686 152.711 220.723 152.711 217.295C152.711 213.882 154.322 211.919 156.798 211.919C159.273 211.919 160.885 213.882 160.885 217.295C160.885 220.723 159.288 222.686 156.798 222.686ZM166.554 225H169.718V216.021C169.718 213.633 171.153 212.051 173.38 212.051C175.577 212.051 176.661 213.325 176.661 215.64V225H179.84V215.024C179.84 211.494 177.892 209.326 174.493 209.326C172.12 209.326 170.479 210.41 169.645 212.168H169.571V209.59H166.554V225ZM182.623 213.955C182.623 216.196 184.073 217.603 187.003 218.276L189.508 218.862C191.192 219.243 191.764 219.829 191.764 220.825C191.764 222.085 190.592 222.876 188.688 222.876C186.754 222.876 185.655 222.085 185.362 220.474H182.228C182.521 223.403 184.835 225.293 188.688 225.293C192.32 225.293 194.942 223.359 194.942 220.547C194.942 218.32 193.741 217.09 190.592 216.357L188.087 215.786C186.417 215.405 185.714 214.746 185.714 213.779C185.714 212.549 186.856 211.714 188.57 211.714C190.343 211.714 191.441 212.651 191.617 214.146H194.591C194.488 211.304 192.159 209.312 188.57 209.312C185.025 209.312 182.623 211.201 182.623 213.955Z" fill="white"/>
<path d="M140.531 111C132.55 111 123.955 112.658 118.02 117.218C112.086 112.658 103.491 111 95.5102 111C89.5757 111 83.2729 111.912 77.9932 114.275C75.0055 115.643 73 118.586 73 121.944V168.704C73 174.093 77.9932 178.072 83.1501 176.746C87.161 175.71 91.4175 175.254 95.5102 175.254C101.895 175.254 108.689 176.331 114.173 179.067C116.629 180.311 119.412 180.311 121.827 179.067C127.311 176.29 134.105 175.254 140.49 175.254C144.583 175.254 148.839 175.71 152.85 176.746C158.007 178.114 163 174.134 163 168.704V121.944C163 118.586 160.995 115.643 158.007 114.275C152.768 111.912 146.465 111 140.531 111V111ZM154.855 163.771C154.855 166.382 152.482 168.289 149.944 167.833C146.874 167.253 143.682 167.004 140.531 167.004C133.573 167.004 123.546 169.699 118.02 173.222V125.509C123.546 121.985 133.573 119.291 140.531 119.291C144.296 119.291 148.02 119.664 151.581 120.451C153.464 120.866 154.855 122.566 154.855 124.514V163.771Z" fill="white"/>
<path d="M126.084 138.197C124.764 138.197 123.567 137.377 123.155 136.066C122.618 134.468 123.526 132.705 125.135 132.213C131.49 130.164 139.702 129.509 147.254 130.369C148.946 130.574 150.184 132.091 149.978 133.771C149.771 135.451 148.244 136.681 146.552 136.476C139.867 135.697 132.563 136.312 127.034 138.074C126.703 138.115 126.373 138.197 126.084 138.197V138.197ZM126.084 149.098C124.764 149.098 123.567 148.279 123.155 146.967C122.618 145.369 123.526 143.607 125.135 143.115C131.449 141.066 139.702 140.41 147.254 141.271C148.946 141.476 150.184 142.992 149.978 144.672C149.771 146.353 148.244 147.582 146.552 147.377C139.867 146.599 132.563 147.213 127.034 148.976C126.723 149.054 126.405 149.095 126.084 149.098V149.098ZM126.084 160C124.764 160 123.567 159.18 123.155 157.869C122.618 156.271 123.526 154.508 125.135 154.016C131.449 151.967 139.702 151.312 147.254 152.172C148.946 152.377 150.184 153.894 149.978 155.574C149.771 157.254 148.244 158.443 146.552 158.279C139.867 157.5 132.563 158.115 127.034 159.877C126.723 159.956 126.405 159.997 126.084 160V160Z" fill="white"/>
</svg>
