<?xml version="1.0" encoding="utf-8"?>
<!-- Generator: Adobe Illustrator 23.0.4, SVG Export Plug-In . SVG Version: 6.00 Build 0)  -->
<svg version="1.1" id="Layer_1" xmlns="http://www.w3.org/2000/svg" xmlns:xlink="http://www.w3.org/1999/xlink" x="0px" y="0px"
	 viewBox="0 0 1920 1080" style="enable-background:new 0 0 1920 1080;" xml:space="preserve">
<style type="text/css">
	.st0{fill:#DBA76B;}
	.st1{fill:#DBA76B;stroke:#A67C52;stroke-width:0.25;stroke-miterlimit:10;}
	.st2{opacity:0.5;fill:#808080;}
</style>
<path class="st0" d="M1304.98,433"/>
<polygon class="st0" points="1261.98,488 1261.98,411 1290.98,411 "/>
<polygon class="st1" points="1306,411 1290.95,411 1261.98,488 1275.98,488 "/>
<polygon class="st2" points="1261.98,488 1261.98,411 1290.98,411 "/>
<polygon class="st2" points="1261.98,488 1261.98,411 1232.98,411 "/>
<path class="st0" d="M584,433"/>
<polygon class="st0" points="626,488 626,411 597,411 "/>
<polygon class="st1" points="581.98,411 597.03,411 626,488 612,488 "/>
<polygon class="st2" points="626,488 626,411 597,411 "/>
<polygon class="st2" points="626,488 626,411 655,411 "/>
<g>
	<rect x="433" y="401" class="st1" width="1022" height="10"/>
	<polygon class="st1" points="433,401 492.5,341.5 1396,341.5 1455.5,401 	"/>
</g>
</svg>
